# xmcd
#
# Track frame offsets: 
#        150
#        17690
#        33125
#        41262
#        64766
#        80037
#        91077
#        104811
#        115007
#        132902
#        153169
#        176834
#
# Disc length: 2379 seconds
#
# Revision: 0
# Processed by: cddbd v1.5.2PL0 Copyright (c) Steve Scherf et al.
# Submitted via: ExactAudioCopyFreeDBPlugin 1.0
#
DISCID=9009490c
DTITLE=The Tree People - It's My Story
DYEAR=2010
DGENRE=
TTITLE0=It's My Story
TTITLE1=Sunday
TTITLE2=More than Yoko
TTITLE3=X times Y
TTITLE4=Living with the Animals
TTITLE5=Hearing Test
TTITLE6=Suite Maeve
TTITLE7=The Change in Kate
TTITLE8=Melody for 3
TTITLE9=Space Heater
TTITLE10=Legends of the Tree People
TTITLE11=It's My Story Reprieve
EXTD=
EXTT0=
EXTT1=
EXTT2=
EXTT3=
EXTT4=
EXTT5=
EXTT6=
EXTT7=
EXTT8=
EXTT9=
EXTT10=
EXTT11=
PLAYORDER=
